<svg width="275" height="85" viewBox="0 0 275 85" fill="none" xmlns="http://www.w3.org/2000/svg">
<g clip-path="url(#clip0_5_260)">
<path d="M0.0567767 85.0002V74.4366C0.753633 74.4366 1.40919 74.4366 2.06475 74.4366C14.4533 74.4366 26.8419 74.452 39.2304 74.4366C46.1783 74.4264 51.9338 69.3776 52.8062 62.5981C53.6527 56.0131 49.229 49.6791 42.5443 48.0354C41.1868 47.7026 39.7363 47.6104 38.3271 47.6002C30.6565 47.5592 22.9808 47.636 15.3102 47.5643C6.65884 47.4773 -0.0464613 40.7182 -4.20053e-06 32.2695C0.0464529 24.1279 6.664 17.3535 14.8817 17.2511C23.4608 17.1435 32.045 17.1999 40.6241 17.2204C44.0052 17.2306 46.3022 19.3914 46.2919 22.4228C46.2816 25.4848 44.0465 27.6661 40.6499 27.6917C32.4115 27.7481 24.168 27.6917 15.9296 27.7173C12.5124 27.7276 10.3393 29.914 10.6593 32.9198C10.9226 35.4083 13.0286 37.1185 15.9657 37.1237C23.7499 37.1442 31.5392 37.1544 39.3233 37.1237C43.5664 37.1083 47.5204 38.117 51.2112 40.1755C60.2445 45.2089 65.1173 55.6752 63.0474 65.5833C60.8691 76.0137 52.6358 83.5716 42.1469 84.7442C40.7945 84.8978 39.4266 84.9848 38.069 84.9848C26.1915 85.0053 14.3139 84.9951 2.43641 84.9951C1.70342 84.9951 0.970432 84.9951 0.0567767 84.9951V85.0002Z" fill="#B00D1C"/>
<path d="M57.7255 37.2618C54.3032 35.5465 51.0306 33.9028 47.7166 32.2386C50.0498 30.4209 51.8978 28.0654 52.6049 24.8959C54.2 17.7733 48.6148 10.6148 41.2591 10.5892C28.246 10.538 15.2277 10.5688 2.20936 10.5688C1.53831 10.5688 0.872429 10.5688 0.0981445 10.5688V0.097376C0.691763 0.0666531 1.24409 0.0103278 1.79125 0.0103278C14.8663 0.0103278 27.9362 -0.0203951 41.0113 0.0205688C53.6631 0.0615326 63.7804 10.4305 63.5017 22.9808C63.383 28.3164 61.1272 33.8414 57.7255 37.2618Z" fill="#B00D1C"/>
<path d="M0.0825195 66.1568V55.7674C0.660652 55.7315 1.16136 55.6752 1.66206 55.6752C14.381 55.6752 27.0999 55.665 39.8136 55.6752C43.6386 55.6752 45.9408 57.8309 45.8066 61.2207C45.7085 63.7656 43.8193 65.8189 41.2693 66.1005C40.4847 66.1876 39.6846 66.1517 38.8897 66.1517C26.625 66.1517 14.3603 66.1517 2.10082 66.1517C1.48139 66.1517 0.856804 66.1517 0.0825195 66.1517V66.1568Z" fill="#B00D1C"/>
<path d="M98.1793 19.7855C97.0179 17.7681 95.4384 16.2063 93.451 15.0952C91.4637 13.9892 89.2286 13.4361 86.7302 13.4361C84.5003 13.4361 82.5439 13.9226 80.8715 14.9006C80.0817 15.3614 79.3745 15.9298 78.7551 16.616V5.1512C78.7551 4.43945 78.1718 3.86084 77.4543 3.86084H72.375C71.6575 3.86084 71.0742 4.43945 71.0742 5.1512V38.8081C71.0742 39.5199 71.6575 40.0985 72.375 40.0985H77.1085C77.826 40.0985 78.4093 39.5199 78.4093 38.8081V37.0569C79.07 37.8557 79.8443 38.5111 80.7218 39.0232C82.3943 40.0012 84.3971 40.4876 86.7302 40.4876C89.2234 40.4876 91.4637 39.9244 93.451 38.803C95.4384 37.6816 97.0127 36.1096 98.1793 34.0922C99.3459 32.0747 99.9292 29.6988 99.9292 26.9593C99.9292 24.2199 99.3459 21.803 98.1793 19.7804V19.7855ZM91.2366 30.8458C90.6326 31.9364 89.8274 32.7762 88.826 33.3599C87.8246 33.9437 86.6838 34.2407 85.4036 34.2407C84.1235 34.2407 82.9776 33.9488 81.9555 33.3599C80.9386 32.7762 80.1333 31.9364 79.5449 30.8458C78.9564 29.7551 78.657 28.4596 78.657 26.9645C78.657 25.4693 78.9513 24.1328 79.5449 23.0575C80.1333 21.9822 80.9438 21.1527 81.9555 20.569C82.9724 19.9852 84.1235 19.6882 85.4036 19.6882C86.6838 19.6882 87.8246 19.9801 88.826 20.569C89.8274 21.1527 90.6326 21.9873 91.2366 23.0575C91.8457 24.1328 92.1451 25.4334 92.1451 26.9645C92.1451 28.4955 91.8457 29.7551 91.2366 30.8458Z" fill="black"/>
<path d="M129.693 15.9348L118.636 41.7113C117.784 43.8312 116.803 45.4903 115.704 46.6936C114.604 47.8969 113.391 48.7469 112.06 49.2333C110.728 49.7198 109.262 49.9656 107.651 49.9656C106.273 49.9656 104.91 49.7556 103.563 49.3306C102.768 49.0797 102.056 48.7776 101.431 48.4089C100.74 48.0044 100.492 47.1288 100.863 46.4171L102.221 43.7903C102.598 43.0683 103.46 42.7406 104.224 43.0324L105.112 43.3704C105.886 43.6622 106.645 43.8107 107.404 43.8107C108.488 43.8107 109.35 43.5598 109.99 43.0529C110.63 42.5511 111.213 41.7113 111.74 40.5387L112.044 39.827C111.719 39.6785 111.44 39.4174 111.285 39.0487L101.282 15.94C100.853 14.9363 101.591 13.8252 102.686 13.8252H107.275C107.894 13.8252 108.451 14.1939 108.689 14.7622L115.735 31.6701L122.822 14.7571C123.06 14.1939 123.617 13.8252 124.231 13.8252H128.289C129.383 13.8252 130.121 14.9363 129.693 15.9348Z" fill="black"/>
<path d="M149.804 39.7504C149.468 39.8733 149.112 39.986 148.74 40.0781C147.641 40.3546 146.5 40.4929 145.318 40.4929C142.2 40.4929 139.769 39.7043 138.029 38.1221C136.29 36.545 135.417 34.1896 135.417 31.0661V20.2721H133.285C132.207 20.2721 131.329 19.4067 131.329 18.3314V16.3498C131.329 15.2796 132.207 14.4092 133.285 14.4092H135.417V9.95433C135.417 8.88415 136.29 8.01367 137.374 8.01367H141.147C142.226 8.01367 143.103 8.88415 143.103 9.95433V14.4092H147.749C148.828 14.4092 149.705 15.2796 149.705 16.3498V18.3314C149.705 19.4016 148.833 20.2721 147.749 20.2721H143.103V30.9688C143.103 32.0748 143.398 32.9299 143.991 33.5342C144.58 34.1384 145.385 34.4354 146.402 34.4354C146.939 34.4354 147.439 34.3739 147.904 34.2459C148.88 33.9796 149.896 34.4814 150.258 35.4185L150.955 37.2363C151.347 38.245 150.82 39.3715 149.798 39.7504H149.804Z" fill="black"/>
<path d="M174.369 24.6653H173.781C173.806 24.8445 173.832 25.034 173.848 25.2183C173.873 25.5102 174.111 25.7099 174.374 25.7099C174.446 25.7099 174.519 25.6945 174.591 25.6638C175.112 25.4333 174.947 24.6602 174.374 24.6602L174.369 24.6653Z" fill="black"/>
<path d="M179.19 19.7598C177.977 17.727 176.325 16.1652 174.24 15.0695C172.154 13.9788 169.816 13.4309 167.225 13.4309C164.634 13.4309 162.12 14.0095 159.988 15.1668C157.851 16.324 156.173 17.9216 154.94 19.9544C153.711 21.9924 153.092 24.3273 153.092 26.9643C153.092 29.6014 153.711 31.8902 154.96 33.9231C156.204 35.961 157.97 37.5637 160.251 38.7312C162.533 39.9038 165.181 40.4875 168.2 40.4875C170.596 40.4875 172.712 40.1189 174.55 39.3866C176.217 38.721 177.631 37.7942 178.782 36.6062C178.978 36.4065 178.989 36.089 178.798 35.8842L175.396 32.2282C175.2 32.0183 174.88 31.9978 174.668 32.1821C173.884 32.8631 173.032 33.3854 172.113 33.749C171.045 34.174 169.806 34.3839 168.397 34.3839C166.822 34.3839 165.449 34.1023 164.288 33.5288C163.121 32.9604 162.218 32.1309 161.578 31.0402C161.232 30.4463 160.979 29.8062 160.819 29.1098H180.372C180.646 29.1098 180.873 28.9101 180.899 28.6387C180.914 28.4544 180.935 28.2649 180.95 28.0601C180.981 27.6863 181.002 27.3535 181.002 27.0565C181.002 24.2249 180.393 21.7927 179.18 19.7547L179.19 19.7598ZM174.586 25.6689C174.513 25.6996 174.441 25.7149 174.369 25.7149C174.106 25.7149 173.868 25.5152 173.842 25.2234C173.827 25.0339 173.806 24.8496 173.775 24.6704H160.731C160.855 23.8511 161.103 23.1086 161.464 22.4481C162.022 21.424 162.801 20.6252 163.802 20.0568C164.804 19.4884 165.96 19.2017 167.271 19.2017C168.582 19.2017 169.734 19.4884 170.719 20.0568C171.705 20.6252 172.474 21.4189 173.032 22.4276C173.404 23.0984 173.651 23.846 173.775 24.6755H174.364C174.932 24.6755 175.097 25.4436 174.581 25.6791L174.586 25.6689Z" fill="black"/>
<path d="M81.3152 80.5554C79.0491 80.5554 76.876 80.2891 74.7906 79.7515C74.0369 79.5569 73.3453 79.347 72.7052 79.1165C71.0843 78.5328 70.3255 76.6946 71.0534 75.1431L71.1256 74.9894C71.7967 73.5608 73.4382 72.9054 74.8887 73.4738C75.4668 73.6991 76.0759 73.9039 76.716 74.0831C78.3729 74.5542 80.0041 74.7897 81.6146 74.7897C83.3851 74.7897 84.6446 74.5798 85.3828 74.1548C86.1209 73.7298 86.4926 73.1461 86.4926 72.3985C86.4926 71.7789 86.2035 71.3181 85.6306 71.0057C85.0576 70.6985 84.2936 70.4629 83.3387 70.2991C82.3889 70.1352 81.3462 69.9765 80.2106 69.8126C79.0801 69.6488 77.9393 69.4286 76.7882 69.1521C75.6371 68.8756 74.5893 68.4608 73.6395 67.9078C72.6897 67.3548 71.9257 66.6072 71.3528 65.6599C70.7798 64.7178 70.4907 63.494 70.4907 61.9988C70.4907 60.3397 70.9759 58.8753 71.9412 57.6054C72.9065 56.3355 74.3105 55.337 76.1482 54.5997C77.9858 53.8675 80.1848 53.4988 82.7451 53.4988C84.5517 53.4988 86.3894 53.6934 88.258 54.0825C88.8206 54.2003 89.3575 54.3334 89.8685 54.487C91.5771 54.994 92.4081 56.9141 91.6493 58.5117L91.5977 58.6193C90.9576 59.9762 89.3833 60.5804 87.9637 60.0837C87.4785 59.9147 86.9933 59.7765 86.5081 59.6741C85.2124 59.3976 83.9581 59.2593 82.7399 59.2593C81.0313 59.2593 79.7873 59.4897 78.9975 59.9455C78.2078 60.4012 77.8155 60.99 77.8155 61.7018C77.8155 62.3521 78.1045 62.8437 78.6775 63.1662C79.2505 63.494 80.0144 63.75 80.9694 63.9497C81.9192 64.1443 82.9619 64.3184 84.0975 64.4617C85.2279 64.6102 86.3687 64.8304 87.5198 65.1223C88.6658 65.4141 89.7085 65.8289 90.6479 66.3665C91.5822 66.9042 92.3462 67.6364 92.9398 68.5632C93.5283 69.49 93.8277 70.7036 93.8277 72.2039C93.8277 73.8322 93.3373 75.2711 92.3514 76.5256C91.3654 77.7801 89.9459 78.7632 88.0928 79.4801C86.2397 80.197 83.9839 80.5554 81.3255 80.5554H81.3152Z" fill="black"/>
<path d="M111.151 80.5554C108.327 80.5554 105.824 79.9717 103.64 78.7991C101.457 77.6265 99.7328 76.0238 98.4733 73.9909C97.2086 71.9581 96.5789 69.6385 96.5789 67.0322C96.5789 64.4259 97.2086 62.0602 98.4733 60.0223C99.7379 57.9894 101.462 56.3919 103.64 55.2346C105.824 54.0774 108.327 53.4988 111.151 53.4988C113.974 53.4988 116.437 54.0774 118.636 55.2346C120.835 56.3919 122.559 57.9792 123.803 59.9967C125.052 62.0141 125.671 64.3593 125.671 67.0271C125.671 69.6949 125.047 71.953 123.803 73.9858C122.554 76.0187 120.829 77.6265 118.636 78.794C116.437 79.9666 113.943 80.5503 111.151 80.5503V80.5554ZM111.151 74.3033C112.431 74.3033 113.577 74.0114 114.599 73.4226C115.616 72.8388 116.421 71.9991 117.01 70.9084C117.603 69.8178 117.897 68.5223 117.897 67.0271C117.897 65.5319 117.603 64.1955 117.01 63.1202C116.421 62.0449 115.616 61.2153 114.599 60.6316C113.582 60.0479 112.431 59.7509 111.151 59.7509C109.871 59.7509 108.72 60.0428 107.703 60.6316C106.686 61.2153 105.87 62.05 105.266 63.1202C104.657 64.1955 104.358 65.4961 104.358 67.0271C104.358 68.5581 104.662 69.8178 105.266 70.9084C105.875 71.9991 106.686 72.8388 107.703 73.4226C108.72 74.0063 109.871 74.3033 111.151 74.3033Z" fill="black"/>
<path d="M130.792 76.3567V47.7384C130.792 45.6338 132.511 43.9287 134.632 43.9287C136.754 43.9287 138.473 45.6338 138.473 47.7384V76.3567C138.473 78.4612 136.754 80.1664 134.632 80.1664C132.511 80.1664 130.792 78.4612 130.792 76.3567Z" fill="black"/>
<path d="M156.787 80.5554C154.588 80.5554 152.627 80.1304 150.903 79.2855C149.179 78.4406 147.842 77.1452 146.892 75.4042C145.942 73.6632 145.462 71.4409 145.462 68.7373V57.6976C145.462 55.5931 147.181 53.8879 149.303 53.8879C151.424 53.8879 153.143 55.5931 153.143 57.6976V67.6108C153.143 69.7921 153.613 71.3949 154.547 72.419C155.481 73.4431 156.803 73.9551 158.511 73.9551C159.694 73.9551 160.741 73.7042 161.66 73.1973C162.579 72.6903 163.302 71.912 163.828 70.8521C164.355 69.7921 164.618 68.4659 164.618 66.8735V57.6924C164.618 55.5879 166.337 53.8828 168.458 53.8828C170.58 53.8828 172.299 55.5879 172.299 57.6924V76.3515C172.299 78.456 170.58 80.1611 168.458 80.1611H165.63C165.289 80.1611 165.01 79.8846 165.01 79.5467C165.01 79.5467 164.05 78.287 162.424 79.1575C160.7 80.0843 158.821 80.5503 156.787 80.5503V80.5554Z" fill="black"/>
<path d="M193.721 80.1304L193.685 80.1406C192.585 80.4171 191.444 80.5554 190.262 80.5554C187.144 80.5554 184.713 79.7668 182.974 78.1846C181.234 76.6075 180.362 74.2521 180.362 71.1286V60.3346H179.092C177.533 60.3346 176.273 59.0852 176.273 57.5388V57.2726C176.273 55.7262 177.533 54.4768 179.092 54.4768H180.362V50.8771C180.362 49.3307 181.621 48.0813 183.18 48.0813H185.224C186.783 48.0813 188.043 49.3307 188.043 50.8771V54.4768H191.821C193.38 54.4768 194.639 55.7262 194.639 57.2726V57.5388C194.639 59.0852 193.38 60.3346 191.821 60.3346H188.043V71.0313C188.043 72.1373 188.337 72.9924 188.93 73.5967C189.519 74.1958 190.324 74.4979 191.341 74.4979C191.702 74.4979 192.053 74.4671 192.384 74.4108C193.705 74.1804 195.001 74.9638 195.476 76.2132L195.594 76.5256C196.183 78.0464 195.3 79.731 193.71 80.1355L193.721 80.1304Z" fill="black"/>
<path d="M204.695 50.2268C203.286 50.2268 202.135 49.8223 201.247 49.0081C200.359 48.194 199.92 47.1853 199.92 45.9819C199.92 44.7786 200.364 43.7699 201.247 42.9557C202.135 42.1416 203.281 41.7371 204.695 41.7371C206.109 41.7371 207.255 42.1211 208.143 42.884C209.031 43.647 209.47 44.6353 209.47 45.8386C209.47 47.1084 209.036 48.1581 208.164 48.9877C207.291 49.8172 206.135 50.2319 204.695 50.2319V50.2268ZM200.854 77.6828V56.3765C200.854 55.0042 201.975 53.8931 203.358 53.8931H206.032C207.415 53.8931 208.535 55.0042 208.535 56.3765V77.6828C208.535 79.0551 207.415 80.1663 206.032 80.1663H203.358C201.975 80.1663 200.854 79.0551 200.854 77.6828Z" fill="black"/>
<path d="M228.274 80.5554C225.451 80.5554 222.947 79.9717 220.764 78.7991C218.58 77.6265 216.856 76.0238 215.597 73.9909C214.332 71.9581 213.702 69.6385 213.702 67.0322C213.702 64.4259 214.332 62.0602 215.597 60.0223C216.861 57.9894 218.586 56.3919 220.764 55.2346C222.947 54.0774 225.451 53.4988 228.274 53.4988C231.098 53.4988 233.56 54.0774 235.759 55.2346C237.958 56.3919 239.682 57.9792 240.926 59.9967C242.175 62.0141 242.795 64.3593 242.795 67.0271C242.795 69.6949 242.17 71.953 240.926 73.9858C239.677 76.0187 237.953 77.6265 235.759 78.794C233.56 79.9666 231.067 80.5503 228.274 80.5503V80.5554ZM228.274 74.3033C229.555 74.3033 230.701 74.0114 231.723 73.4226C232.739 72.8388 233.545 71.9991 234.133 70.9084C234.727 69.8178 235.021 68.5223 235.021 67.0271C235.021 65.5319 234.727 64.1955 234.133 63.1202C233.545 62.0449 232.739 61.2153 231.723 60.6316C230.706 60.0479 229.555 59.7509 228.274 59.7509C226.994 59.7509 225.843 60.0428 224.826 60.6316C223.809 61.2153 222.994 62.05 222.39 63.1202C221.781 64.1955 221.481 65.4961 221.481 67.0271C221.481 68.5581 221.786 69.8178 222.39 70.9084C222.999 71.9991 223.809 72.8388 224.826 73.4226C225.843 74.0063 226.994 74.3033 228.274 74.3033Z" fill="black"/>
<path d="M264.02 53.4988C266.121 53.4988 268 53.9135 269.657 54.7431C271.314 55.5726 272.62 56.8424 273.57 58.5527C274.52 60.2629 275 62.4545 275 65.1223V77.9696C275 79.1831 274.009 80.1662 272.785 80.1662H269.528C268.305 80.1662 267.314 79.1831 267.314 77.9696V66.2949C267.314 64.1801 266.844 62.6183 265.91 61.6045C264.975 60.5958 263.654 60.0888 261.945 60.0888C260.732 60.0888 259.638 60.3397 258.673 60.8467C257.702 61.3536 256.949 62.1268 256.407 63.1662C255.865 64.2108 255.596 65.5421 255.596 67.1705V77.9696C255.596 79.1831 254.605 80.1662 253.382 80.1662H250.125C248.901 80.1662 247.91 79.1831 247.91 77.9696V56.0846C247.91 54.8711 248.901 53.8879 250.125 53.8879H254.61C254.858 53.8879 255.075 54.0262 255.178 54.231C255.328 54.5229 255.524 54.8045 255.818 54.9632C256.288 55.2193 257.031 55.4087 257.955 54.912C259.726 53.9699 261.744 53.4937 264.01 53.4937L264.02 53.4988Z" fill="black"/>
</g>
<defs>
<clipPath id="clip0_5_260">
<rect width="275" height="85" fill="white"/>
</clipPath>
</defs>
</svg>
