<svg width="123" height="38" viewBox="0 0 123 38" fill="none" xmlns="http://www.w3.org/2000/svg">
<g id="Layer_1" clip-path="url(#clip0_5_455)">
<g id="Group">
<path id="Vector" d="M0.0252597 38V33.2775C0.336944 33.2775 0.630159 33.2775 0.923373 33.2775C6.46443 33.2775 12.0055 33.2844 17.5466 33.2775C20.6542 33.2729 23.2285 31.0158 23.6186 27.985C23.9973 25.0411 22.0187 22.2094 19.0288 21.4746C18.4216 21.3258 17.7728 21.2846 17.1425 21.28C13.7117 21.2617 10.2785 21.296 6.84769 21.264C2.97818 21.2251 -0.0209158 18.2034 -0.000136822 14.4263C0.0206422 10.7865 2.98049 7.75797 6.65606 7.71219C10.4932 7.66412 14.3327 7.6893 18.1699 7.69845C19.6822 7.70303 20.7096 8.66906 20.705 10.0242C20.7003 11.3932 19.7006 12.3683 18.1815 12.3798C14.4967 12.405 10.8095 12.3798 7.12474 12.3912C5.59633 12.3958 4.62434 13.3733 4.76748 14.717C4.88523 15.8295 5.82721 16.5941 7.1409 16.5964C10.6225 16.6056 14.1065 16.6101 17.5881 16.5964C19.4859 16.5895 21.2544 17.0405 22.9052 17.9607C26.9456 20.211 29.1251 24.89 28.1992 29.3195C27.2249 33.9825 23.5424 37.3613 18.851 37.8856C18.2461 37.9542 17.6343 37.9932 17.0271 37.9932C11.7146 38.0023 6.4021 37.9977 1.08961 37.9977C0.761759 37.9977 0.433913 37.9977 0.0252597 37.9977V38Z" fill="#B00D1C"/>
<path id="Vector_2" d="M25.8189 16.6582C24.2881 15.8913 22.8244 15.1565 21.3422 14.4125C22.3857 13.5999 23.2123 12.5469 23.5286 11.1299C24.242 7.94566 21.7439 4.74542 18.4539 4.73398C12.6335 4.71108 6.81072 4.72482 0.98799 4.72482C0.68785 4.72482 0.390017 4.72482 0.0437012 4.72482V0.043494C0.30921 0.0297591 0.556249 0.00457837 0.800979 0.00457837C6.64911 0.00457837 12.4949 -0.00915657 18.3431 0.00915668C24.0019 0.0274699 28.5271 4.66301 28.4024 10.2737C28.3493 12.659 27.3403 15.129 25.8189 16.6582Z" fill="#B00D1C"/>
<path id="Vector_3" d="M0.0368652 29.5759V24.9312C0.295448 24.9152 0.519399 24.89 0.74335 24.89C6.43217 24.89 12.121 24.8854 17.8075 24.89C19.5183 24.89 20.548 25.8537 20.488 27.3692C20.4441 28.5069 19.5991 29.4248 18.4586 29.5507C18.1076 29.5896 17.7498 29.5736 17.3942 29.5736C11.9086 29.5736 6.42294 29.5736 0.939596 29.5736C0.662543 29.5736 0.383182 29.5736 0.0368652 29.5736V29.5759Z" fill="#B00D1C"/>
</g>
<g id="Group_2">
<path id="Vector_4" d="M43.9129 8.84529C43.3935 7.94336 42.687 7.24517 41.7981 6.74842C40.9092 6.25396 39.9095 6.00674 38.7921 6.00674C37.7947 6.00674 36.9196 6.22421 36.1716 6.66143C35.8184 6.86746 35.5021 7.12155 35.225 7.4283V2.30288C35.225 1.98469 34.9641 1.72601 34.6432 1.72601H32.3714C32.0504 1.72601 31.7896 1.98469 31.7896 2.30288V17.3495C31.7896 17.6677 32.0504 17.9264 32.3714 17.9264H34.4885C34.8094 17.9264 35.0703 17.6677 35.0703 17.3495V16.5666C35.3658 16.9237 35.7122 17.2167 36.1047 17.4457C36.8527 17.8829 37.7485 18.1003 38.7921 18.1003C39.9072 18.1003 40.9092 17.8485 41.7981 17.3472C42.687 16.8459 43.3911 16.1431 43.9129 15.2412C44.4347 14.3393 44.6956 13.2771 44.6956 12.0524C44.6956 10.8277 44.4347 9.74722 43.9129 8.843V8.84529ZM40.8076 13.7899C40.5375 14.2775 40.1773 14.6529 39.7294 14.9138C39.2815 15.1748 38.7713 15.3076 38.1987 15.3076C37.6261 15.3076 37.1136 15.1771 36.6564 14.9138C36.2016 14.6529 35.8415 14.2775 35.5783 13.7899C35.3151 13.3023 35.1811 12.7231 35.1811 12.0547C35.1811 11.3863 35.3127 10.7888 35.5783 10.3081C35.8415 9.82734 36.2039 9.45649 36.6564 9.19553C37.1113 8.93457 37.6261 8.8018 38.1987 8.8018C38.7713 8.8018 39.2815 8.93228 39.7294 9.19553C40.1773 9.45649 40.5375 9.82963 40.8076 10.3081C41.0801 10.7888 41.214 11.3702 41.214 12.0547C41.214 12.7391 41.0801 13.3023 40.8076 13.7899Z" fill="black"/>
<path id="Vector_5" d="M58.008 7.12386L53.0626 18.6475C52.6816 19.5952 52.2429 20.3369 51.7512 20.8748C51.2594 21.4128 50.7168 21.7928 50.1212 22.0102C49.5255 22.2277 48.8698 22.3376 48.1495 22.3376C47.533 22.3376 46.9235 22.2437 46.3209 22.0537C45.9654 21.9416 45.6468 21.8065 45.3674 21.6417C45.058 21.4608 44.9472 21.0694 45.1134 20.7512L45.7207 19.5769C45.8892 19.2541 46.2748 19.1076 46.6165 19.2381L47.0136 19.3892C47.3599 19.5196 47.6993 19.586 48.0387 19.586C48.5235 19.586 48.9091 19.4739 49.1954 19.2472C49.4817 19.0229 49.7425 18.6475 49.978 18.1233L50.1143 17.8051C49.9688 17.7387 49.8441 17.6219 49.7749 17.4571L45.3005 7.12615C45.1088 6.67747 45.439 6.18073 45.9284 6.18073H47.981C48.258 6.18073 48.5073 6.34554 48.6136 6.59964L51.765 14.1584L54.935 6.59735C55.0412 6.34554 55.2905 6.18073 55.5653 6.18073H57.38C57.8694 6.18073 58.1996 6.67747 58.008 7.12386Z" fill="black"/>
<path id="Vector_6" d="M67.0031 17.7707C66.853 17.8257 66.6937 17.876 66.5275 17.9172C66.0357 18.0408 65.5255 18.1026 64.9968 18.1026C63.6023 18.1026 62.5148 17.7501 61.7368 17.0428C60.9587 16.3377 60.5685 15.2847 60.5685 13.8883V9.06276H59.615C59.1325 9.06276 58.74 8.67589 58.74 8.19517V7.30927C58.74 6.83083 59.1325 6.44168 59.615 6.44168H60.5685V4.45011C60.5685 3.97168 60.9587 3.58252 61.4436 3.58252H63.1313C63.6138 3.58252 64.0063 3.97168 64.0063 4.45011V6.44168H66.0842C66.5667 6.44168 66.9592 6.83083 66.9592 7.30927V8.19517C66.9592 8.6736 66.5691 9.06276 66.0842 9.06276H64.0063V13.8448C64.0063 14.3393 64.1379 14.7216 64.4034 14.9917C64.6666 15.2618 65.0268 15.3946 65.4816 15.3946C65.7217 15.3946 65.9457 15.3671 66.1535 15.3099C66.5898 15.1908 67.0447 15.4152 67.2063 15.8341L67.518 16.6467C67.6934 17.0977 67.4579 17.6013 67.0008 17.7707H67.0031Z" fill="black"/>
<path id="Vector_7" d="M77.9905 11.0269H77.7273C77.7388 11.107 77.7504 11.1917 77.7573 11.2741C77.7689 11.4046 77.8751 11.4938 77.9928 11.4938C78.0251 11.4938 78.0575 11.487 78.0898 11.4732C78.323 11.3702 78.2491 11.0246 77.9928 11.0246L77.9905 11.0269Z" fill="black"/>
<path id="Vector_8" d="M80.1468 8.83385C79.6042 7.92506 78.8654 7.22687 77.9327 6.73699C76.9999 6.2494 75.9541 6.00446 74.7951 6.00446C73.6361 6.00446 72.5117 6.26313 71.5582 6.78048C70.6023 7.29783 69.852 8.01205 69.3002 8.92084C68.7507 9.83193 68.4736 10.8758 68.4736 12.0547C68.4736 13.2336 68.7507 14.2569 69.3094 15.1657C69.8658 16.0767 70.6554 16.7933 71.6759 17.3152C72.6964 17.8394 73.8808 18.1004 75.2314 18.1004C76.3027 18.1004 77.2493 17.9355 78.0712 17.6082C78.8169 17.3106 79.4496 16.8963 79.9644 16.3652C80.0521 16.2759 80.0568 16.134 79.9713 16.0424L78.4499 14.4079C78.3621 14.3141 78.219 14.3049 78.1243 14.3873C77.7734 14.6918 77.3924 14.9253 76.9815 15.0878C76.5036 15.2778 75.9495 15.3717 75.3192 15.3717C74.615 15.3717 74.0008 15.2458 73.4814 14.9894C72.9596 14.7353 72.5555 14.3645 72.2693 13.8769C72.1146 13.6113 72.0014 13.3252 71.9299 13.0139H80.6755C80.7979 13.0139 80.8995 12.9246 80.911 12.8033C80.9179 12.7208 80.9272 12.6361 80.9341 12.5446C80.9479 12.3775 80.9572 12.2287 80.9572 12.0959C80.9572 10.83 80.6847 9.74265 80.1422 8.83156L80.1468 8.83385ZM78.0874 11.4755C78.0551 11.4893 78.0227 11.4961 77.9904 11.4961C77.8727 11.4961 77.7665 11.4069 77.7549 11.2764C77.748 11.1917 77.7387 11.1093 77.7249 11.0292H71.8906C71.946 10.6629 72.0569 10.331 72.2185 10.0357C72.4678 9.57783 72.8164 9.22072 73.2643 8.96662C73.7122 8.71253 74.2294 8.58434 74.8158 8.58434C75.4023 8.58434 75.9171 8.71253 76.3581 8.96662C76.7991 9.22072 77.1431 9.57554 77.3924 10.0265C77.5587 10.3264 77.6695 10.6606 77.7249 11.0314H77.9881C78.2421 11.0314 78.3159 11.3748 78.0851 11.4801L78.0874 11.4755Z" fill="black"/>
</g>
<g id="Group_3">
<path id="Vector_9" d="M36.3701 36.013C35.3565 36.013 34.3845 35.894 33.4518 35.6536C33.1147 35.5666 32.8053 35.4727 32.519 35.3697C31.7941 35.1088 31.4547 34.287 31.7802 33.5933L31.8125 33.5247C32.1127 32.886 32.8469 32.593 33.4956 32.8471C33.7542 32.9478 34.0267 33.0394 34.3129 33.1195C35.0541 33.3301 35.7836 33.4354 36.504 33.4354C37.2959 33.4354 37.8592 33.3415 38.1894 33.1515C38.5195 32.9615 38.6858 32.7006 38.6858 32.3664C38.6858 32.0894 38.5565 31.8833 38.3002 31.7437C38.0439 31.6064 37.7022 31.5011 37.2751 31.4278C36.8503 31.3546 36.3839 31.2836 35.876 31.2103C35.3704 31.1371 34.8601 31.0387 34.3453 30.915C33.8304 30.7914 33.3617 30.606 32.9369 30.3588C32.5121 30.1115 32.1704 29.7773 31.9141 29.3538C31.6579 28.9326 31.5286 28.3855 31.5286 27.7171C31.5286 26.9754 31.7456 26.3207 32.1773 25.753C32.6091 25.1853 33.2371 24.7389 34.059 24.4093C34.8809 24.0819 35.8644 23.9171 37.0096 23.9171C37.8177 23.9171 38.6396 24.0041 39.4754 24.178C39.727 24.2307 39.9671 24.2902 40.1957 24.3589C40.9599 24.5855 41.3316 25.4439 40.9922 26.1582L40.9691 26.2062C40.6829 26.8129 39.9787 27.083 39.3438 26.8609C39.1267 26.7854 38.9097 26.7236 38.6927 26.6778C38.1132 26.5542 37.5522 26.4924 37.0073 26.4924C36.2431 26.4924 35.6867 26.5954 35.3334 26.7991C34.9802 27.0029 34.8047 27.2661 34.8047 27.5843C34.8047 27.875 34.934 28.0948 35.1903 28.239C35.4466 28.3855 35.7883 28.5 36.2154 28.5893C36.6402 28.6762 37.1066 28.7541 37.6145 28.8182C38.1201 28.8846 38.6304 28.983 39.1452 29.1135C39.6578 29.244 40.1241 29.4294 40.5443 29.6697C40.9622 29.9101 41.3039 30.2374 41.5694 30.6518C41.8326 31.0661 41.9665 31.6086 41.9665 32.2794C41.9665 33.0073 41.7472 33.6506 41.3062 34.2114C40.8653 34.7723 40.2303 35.2118 39.4015 35.5323C38.5726 35.8527 37.5637 36.013 36.3747 36.013H36.3701Z" fill="black"/>
<path id="Vector_10" d="M49.7147 36.013C48.4518 36.013 47.332 35.752 46.3554 35.2278C45.3788 34.7036 44.6077 33.9871 44.0443 33.0783C43.4787 32.1695 43.197 31.1325 43.197 29.9673C43.197 28.8021 43.4787 27.7446 44.0443 26.8335C44.61 25.9247 45.3811 25.2105 46.3554 24.6931C47.332 24.1758 48.4518 23.9171 49.7147 23.9171C50.9776 23.9171 52.0789 24.1758 53.0624 24.6931C54.046 25.2105 54.8171 25.9201 55.3735 26.822C55.9322 27.7239 56.2093 28.7724 56.2093 29.965C56.2093 31.1577 55.9299 32.1672 55.3735 33.076C54.8148 33.9848 54.0436 34.7036 53.0624 35.2255C52.0789 35.7497 50.9637 36.0107 49.7147 36.0107V36.013ZM49.7147 33.2179C50.2873 33.2179 50.7998 33.0874 51.257 32.8242C51.7118 32.5632 52.072 32.1878 52.3352 31.7002C52.6007 31.2126 52.7323 30.6335 52.7323 29.965C52.7323 29.2966 52.6007 28.6991 52.3352 28.2184C52.072 27.7377 51.7118 27.3668 51.257 27.1059C50.8021 26.8449 50.2873 26.7121 49.7147 26.7121C49.1421 26.7121 48.6273 26.8426 48.1724 27.1059C47.7176 27.3668 47.3528 27.74 47.0827 28.2184C46.8103 28.6991 46.6763 29.2806 46.6763 29.965C46.6763 30.6495 46.8126 31.2126 47.0827 31.7002C47.3551 32.1878 47.7176 32.5632 48.1724 32.8242C48.6273 33.0852 49.1421 33.2179 49.7147 33.2179Z" fill="black"/>
<path id="Vector_11" d="M58.4998 34.1359V21.3418C58.4998 20.401 59.2686 19.6387 60.2175 19.6387C61.1664 19.6387 61.9352 20.401 61.9352 21.3418V34.1359C61.9352 35.0767 61.1664 35.839 60.2175 35.839C59.2686 35.839 58.4998 35.0767 58.4998 34.1359Z" fill="black"/>
<path id="Vector_12" d="M70.1267 36.013C69.1432 36.013 68.2659 35.823 67.4947 35.4453C66.7236 35.0676 66.1256 34.4884 65.7008 33.7101C65.276 32.9318 65.0613 31.9383 65.0613 30.7296V25.7942C65.0613 24.8534 65.8301 24.0911 66.779 24.0911C67.7279 24.0911 68.4967 24.8534 68.4967 25.7942V30.226C68.4967 31.2012 68.7068 31.9177 69.1247 32.3755C69.5426 32.8334 70.1337 33.0623 70.8979 33.0623C71.4266 33.0623 71.8953 32.9501 72.3062 32.7235C72.7172 32.4968 73.0404 32.1489 73.2759 31.675C73.5114 31.2012 73.6291 30.6083 73.6291 29.8964V25.7919C73.6291 24.8511 74.398 24.0888 75.3469 24.0888C76.2958 24.0888 77.0646 24.8511 77.0646 25.7919V34.1336C77.0646 35.0744 76.2958 35.8367 75.3469 35.8367H74.0817C73.9293 35.8367 73.8046 35.7131 73.8046 35.562C73.8046 35.562 73.3752 34.9989 72.6479 35.3881C71.8768 35.8024 71.0364 36.0107 70.1267 36.0107V36.013Z" fill="black"/>
<path id="Vector_13" d="M86.6459 35.823L86.6298 35.8276C86.138 35.9512 85.6278 36.013 85.0991 36.013C83.7046 36.013 82.6171 35.6605 81.8391 34.9531C81.061 34.2481 80.6708 33.1951 80.6708 31.7987V26.9731H80.1029C79.4056 26.9731 78.8423 26.4146 78.8423 25.7233V25.6042C78.8423 24.9129 79.4056 24.3543 80.1029 24.3543H80.6708V22.7451C80.6708 22.0537 81.2342 21.4952 81.9314 21.4952H82.8457C83.543 21.4952 84.1063 22.0537 84.1063 22.7451V24.3543H85.7963C86.4936 24.3543 87.0569 24.9129 87.0569 25.6042V25.7233C87.0569 26.4146 86.4936 26.9731 85.7963 26.9731H84.1063V31.7552C84.1063 32.2496 84.2379 32.6319 84.5034 32.902C84.7666 33.1699 85.1268 33.3049 85.5816 33.3049C85.7432 33.3049 85.9002 33.2912 86.048 33.266C86.639 33.163 87.2185 33.5132 87.4309 34.0718L87.484 34.2114C87.7472 34.8913 87.3524 35.6445 86.6413 35.8253L86.6459 35.823Z" fill="black"/>
<path id="Vector_14" d="M91.5543 22.4543C90.924 22.4543 90.4092 22.2735 90.0121 21.9095C89.6149 21.5455 89.4187 21.0946 89.4187 20.5566C89.4187 20.0187 89.6173 19.5677 90.0121 19.2037C90.4092 18.8397 90.9217 18.6589 91.5543 18.6589C92.1869 18.6589 92.6995 18.8306 93.0966 19.1717C93.4937 19.5128 93.6899 19.9546 93.6899 20.4925C93.6899 21.0602 93.496 21.5295 93.1058 21.9003C92.7156 22.2712 92.1985 22.4566 91.5543 22.4566V22.4543ZM89.8366 34.7288V25.2036C89.8366 24.5901 90.3376 24.0934 90.9563 24.0934H92.1523C92.771 24.0934 93.272 24.5901 93.272 25.2036V34.7288C93.272 35.3423 92.771 35.839 92.1523 35.839H90.9563C90.3376 35.839 89.8366 35.3423 89.8366 34.7288Z" fill="black"/>
<path id="Vector_15" d="M102.101 36.013C100.838 36.013 99.7183 35.752 98.7417 35.2278C97.765 34.7036 96.9939 33.9871 96.4306 33.0783C95.8649 32.1695 95.5833 31.1325 95.5833 29.9673C95.5833 28.8021 95.8649 27.7446 96.4306 26.8335C96.9962 25.9247 97.7674 25.2105 98.7417 24.6931C99.7183 24.1758 100.838 23.9171 102.101 23.9171C103.364 23.9171 104.465 24.1758 105.449 24.6931C106.432 25.2105 107.203 25.9201 107.76 26.822C108.318 27.7239 108.596 28.7724 108.596 29.965C108.596 31.1577 108.316 32.1672 107.76 33.076C107.201 33.9848 106.43 34.7036 105.449 35.2255C104.465 35.7497 103.35 36.0107 102.101 36.0107V36.013ZM102.101 33.2179C102.674 33.2179 103.186 33.0874 103.643 32.8242C104.098 32.5632 104.458 32.1878 104.721 31.7002C104.987 31.2126 105.118 30.6335 105.118 29.965C105.118 29.2966 104.987 28.6991 104.721 28.2184C104.458 27.7377 104.098 27.3668 103.643 27.1059C103.188 26.8449 102.674 26.7121 102.101 26.7121C101.528 26.7121 101.013 26.8426 100.559 27.1059C100.104 27.3668 99.739 27.74 99.4689 28.2184C99.1965 28.6991 99.0626 29.2806 99.0626 29.965C99.0626 30.6495 99.1988 31.2126 99.4689 31.7002C99.7414 32.1878 100.104 32.5632 100.559 32.8242C101.013 33.0852 101.528 33.2179 102.101 33.2179Z" fill="black"/>
<path id="Vector_16" d="M118.089 23.9171C119.029 23.9171 119.869 24.1025 120.61 24.4733C121.352 24.8442 121.936 25.4119 122.36 26.1765C122.785 26.9411 123 27.9208 123 29.1135V34.857C123 35.3995 122.557 35.839 122.01 35.839H120.553C120.006 35.839 119.562 35.3995 119.562 34.857V29.6377C119.562 28.6923 119.352 27.9941 118.934 27.5408C118.516 27.0899 117.925 26.8632 117.161 26.8632C116.619 26.8632 116.129 26.9754 115.697 27.202C115.263 27.4287 114.926 27.7743 114.684 28.239C114.441 28.706 114.321 29.3012 114.321 30.0291V34.857C114.321 35.3995 113.878 35.839 113.331 35.839H111.874C111.327 35.839 110.884 35.3995 110.884 34.857V25.0731C110.884 24.5306 111.327 24.0911 111.874 24.0911H113.88C113.991 24.0911 114.088 24.1529 114.134 24.2444C114.201 24.3749 114.289 24.5008 114.421 24.5718C114.631 24.6862 114.963 24.7709 115.376 24.5489C116.168 24.1277 117.071 23.9148 118.085 23.9148L118.089 23.9171Z" fill="black"/>
</g>
</g>
<defs>
<clipPath id="clip0_5_455">
<rect width="123" height="38" fill="white"/>
</clipPath>
</defs>
</svg>
